<svg width="58" height="81" viewBox="0 0 58 81" fill="none" xmlns="http://www.w3.org/2000/svg">
<path d="M31.9428 44.0665C31.935 44.0665 32.0463 44.1666 31.4492 43.859C31.1821 43.7203 30.8676 43.7101 30.5922 43.8302C30.3168 43.9498 30.1098 44.1871 30.0283 44.4757L28.4588 50.0299H14.544L16.8017 42.0236H26.0717C26.4819 42.0236 26.8505 41.7731 27.0014 41.3912C27.1523 41.0099 27.0551 40.5748 26.7558 40.2941C25.6606 39.2667 25.3788 38.7867 25.3198 38.6681C25.2817 38.1188 24.9438 37.4601 24.1811 36.4376C23.9921 36.1847 23.6948 36.0358 23.3793 36.0358H18.4988L19.5361 32.3634C19.6625 31.9147 19.4628 31.4381 19.0537 31.214L15.5815 29.3146C15.3134 29.1681 14.9951 29.151 14.7138 29.2701C14.433 29.3883 14.2211 29.628 14.1386 29.9215L12.2138 36.7653L12.2137 36.7664L11.0825 40.7506L11.0823 40.7546L11.0805 40.7584L8.26105 50.7572L7.1308 54.7579L4.31085 64.7572L3.18061 68.7579L0.360781 78.7584C0.27582 79.0602 0.336855 79.3839 0.52582 79.6334C0.714785 79.8834 1.0102 80.0299 1.32318 80.0299H5.32318C5.77094 80.0299 6.164 79.732 6.28559 79.3014L8.89997 70.0299H22.8221L20.3608 78.7584C20.2758 79.0602 20.3369 79.3839 20.5258 79.6334C20.7148 79.8834 21.0102 80.0299 21.3232 80.0299H25.3232C25.7709 80.0299 26.164 79.732 26.2856 79.3014L29.105 69.3026L30.2353 65.3019L33.0552 55.3026L34.1855 51.3019C34.1882 51.2923 34.1844 51.2824 34.1868 51.2728L35.2993 47.3473C35.3911 47.0236 35.3139 46.6749 35.0937 46.4205C33.3085 44.3575 32.4682 44.0665 31.9428 44.0665ZM15.7241 31.6725L17.395 32.5865L16.4204 36.0358H14.4965L15.7241 31.6725ZM13.9321 38.0358H17.1772H22.8676C23.2724 38.6212 23.3232 38.7975 23.3232 38.7716C23.3232 39.0665 23.4033 39.4401 23.81 40.0236H13.3676L13.9321 38.0358ZM12.7997 42.0299H14.7221L12.4663 50.0299H10.5439L12.7997 42.0299ZM8.85004 56.0299H10.7724L8.51606 64.0299H6.59369L8.85004 56.0299ZM12.8502 56.0299H26.7722L24.5159 64.0299H10.5939L12.8502 56.0299ZM4.56635 78.0299H2.64398L4.89984 70.0299H6.82221L4.56635 78.0299ZM24.5663 78.0299H22.644L24.8998 70.0299H26.8222L24.5663 78.0299ZM27.3862 68.0299H24.143H8.14301H5.46479L6.02973 66.0299H9.27289H25.2729H27.9511L27.3862 68.0299ZM28.5161 64.0299H26.5937L28.85 56.0299H30.7724L28.5161 64.0299ZM31.3364 54.0299H28.0932H12.0932H9.41498L9.97992 52.0299H13.2231H31.9013L31.3364 54.0299ZM32.4619 50.0255H30.5385L31.6625 46.0485C31.707 46.0538 31.7504 46.0577 31.7934 46.0602C31.894 46.1066 32.3261 46.3458 33.226 47.3292L32.4619 50.0255Z" fill="black"/>
<path d="M57.4749 0.42627C57.2859 0.176758 56.991 0.0297852 56.6775 0.0297852H52.6775C52.2298 0.0297852 51.8367 0.327148 51.7151 0.757812L49.661 8.02979H35.7395L37.6399 1.30176C37.7249 1 37.6638 0.67627 37.4749 0.42627C37.2859 0.176758 36.991 0.0297852 36.6775 0.0297852H32.6775C32.2298 0.0297852 31.8367 0.327148 31.7151 0.757812L29.4553 8.75781C29.4552 8.7583 29.4554 8.75885 29.4553 8.75934L29.4549 8.76025L28.336 12.7556C28.336 12.7556 28.3354 12.7567 28.3352 12.7573L25.5051 22.7573C25.504 22.7612 25.5056 22.7652 25.5046 22.769L24.5909 26.0342H24.4461C23.9988 26.0342 23.6057 26.3315 23.4837 26.7622L22.5906 29.9199C22.4636 30.3687 22.6638 30.8452 23.073 31.0693L26.5452 32.9688C26.6941 33.0503 26.8596 33.0913 27.0252 33.0913C27.1565 33.0913 27.2883 33.0654 27.4129 33.0132C27.6936 32.895 27.9055 32.6553 27.9881 32.3618L29.2044 28.0342H44.0302L41.7653 36.0356H32.7341C32.3557 36.0356 32.01 36.249 31.8401 36.5874C31.6707 36.9253 31.7063 37.3306 31.9324 37.6338C32.5789 38.499 32.6765 38.8447 32.6775 38.7715C32.6775 39.2876 32.9226 40.0459 34.7425 41.7529C34.9275 41.9268 35.1721 42.0234 35.4265 42.0234H40.0791L39.3836 44.4746C39.2537 44.9326 39.4641 45.4185 39.887 45.6362C40.4241 45.9136 40.8079 46.043 41.1477 46.0601C41.261 46.1123 41.7923 46.4067 42.9353 47.729C43.1277 47.9512 43.4046 48.0747 43.6917 48.0747C43.7639 48.0747 43.8367 48.0669 43.9085 48.0508C44.2678 47.9712 44.554 47.7007 44.6541 47.3467L46.3655 41.2954C46.3655 41.2954 46.3659 41.2943 46.366 41.2939L47.485 37.3084L50.3157 27.3066C50.3159 27.306 50.3156 27.3052 50.3158 27.3046L51.4358 23.3027C51.4381 23.2945 51.4348 23.2861 51.4369 23.2778L54.26 13.3022C54.26 13.3022 54.26 13.3008 54.2602 13.3002L55.3797 9.3028L57.6399 1.30176C57.7249 1 57.6638 0.67627 57.4749 0.42627ZM33.4343 2.02979H35.3557L33.6609 8.02979H31.7395L33.4343 2.02979ZM30.054 14.0298H31.9754L29.7112 22.0298H27.7898L30.054 14.0298ZM34.0542 14.0298H47.9751L45.7101 22.0332H31.7891L34.0542 14.0298ZM26.4026 30.6108L24.7322 29.6973L25.2024 28.0342H25.3494H27.1267L26.4026 30.6108ZM43.2063 45.1167C42.4441 44.4141 41.9387 44.167 41.5706 44.0933L42.158 42.0234H44.0808L43.2063 45.1167ZM44.6453 40.0234H41.4021H35.8279C34.9651 39.1812 34.7278 38.7754 34.6741 38.6675C34.6604 38.4741 34.6101 38.2671 34.5169 38.0356H42.5217H45.2034L44.6453 40.0234ZM45.7664 36.0356H43.844L46.1091 28.0342H48.031L45.7664 36.0356ZM48.5945 26.0342H45.3528H28.4466H26.6677L27.2278 24.0332H49.1546L48.5945 26.0342ZM49.7112 22.0298H47.7898L50.054 14.0298H51.9754L49.7112 22.0298ZM52.5393 12.0298H49.2976H33.2976H30.616L31.176 10.0298H34.4177H50.4177H53.0994L52.5393 12.0298ZM53.6609 8.02979H51.7395L53.4343 2.02979H55.3557L53.6609 8.02979Z" fill="black"/>
<path d="M41.2173 49.6471C41.0986 49.4098 40.8906 49.2296 40.6392 49.1456C40.3867 49.0616 40.1133 49.0821 39.8755 49.1998L37.3594 50.4581C37.0205 50.6275 36.8066 50.9737 36.8066 51.3526V55.1266C36.8066 55.6788 37.2544 56.1266 37.8066 56.1266H40.3228C40.7017 56.1266 41.0479 55.9127 41.2173 55.5738L42.4751 53.0577C42.6157 52.776 42.6157 52.4449 42.4751 52.1632L41.2173 49.6471ZM39.7046 54.1266H38.8066V51.9708L39.8755 51.4361L40.4624 52.6104L39.7046 54.1266Z" fill="black"/>
</svg>
